<svg id="Capa_1" enable-background="new 0 0 512 512" height="512" viewBox="0 0 512 512" width="512" xmlns="http://www.w3.org/2000/svg"><g><g><g><path d="m16.523 209.855 73.108 302.145 183.2-44.328-5.593-146.597-67.514-155.548-97.18.019z" fill="#90f2f1"/></g><g><path d="m0 141.568 16.523 68.287 183.201-44.328 16.135-40.047-32.658-28.24z" fill="#5ed8d3"/></g><path d="m199.724 165.527 73.107 302.145 187.231-45.303-73.108-302.145-95.881-.294z" fill="#5ed8d3"/></g><g><g><path d="m130.879 70.257v310.864h188.487l29.04-143.8-29.04-167.064-94.458-22.835z" fill="#fff15b"/></g><g><path d="m130.879 0v70.257h188.487l25.101-35.128-25.101-35.129z" fill="#f5e233"/></g><path d="m319.366 70.257v310.864h69.6l57.515-75.933 65.519-47.101v-187.83l-93.123-22.835z" fill="#f5e233"/><path d="m319.366 0h192.634v70.257h-192.634z" fill="#e7d500"/></g><g><path d="m388.966 381.121v-123.034h123.034z" fill="#e7d500"/></g></g></svg>